<svg class="napis" xmlns="http://www.w3.org/2000/svg" viewBox="0 0 254.3 53.94">
                        <defs>
                            <style>
                            .cls-1 {
                                fill: #d4a615;
                            }

                           
                            </style>
                        </defs>
                        
                            <g id="Napis" >
                            <g id="napis-2" data-name="napis" style="transform: translate3d(0px, 0px, 0px);">
                            <path d="M18.69,210.3V180.18H26V210.3ZM27.16,206V191.4l5.15-11.21h7.64Zm13.13,4.27H32.36l-2.49-7,4.35-8.92Z" transform="translate(-18.69 -175.95)"></path>
                            <path d="M41.44,210.3V180.18h7.34V210.3Zm8.5,0v-6h3.64v-3.81h6.66v9.83Z" transform="translate(-18.69 -175.95)"></path>
                            <path d="M69.81,197.93V210.3H62.47V180.18h7.34v11.94h7v5.81ZM71,186v-5.83H82.44v8.72H75.54V186Zm0,24.29v-6H75.1v-3h7.34v9Z" transform="translate(-18.69 -175.95)"></path>
                            <path d="M93,210.3H90l-4.42-6V186.2l4.42-6H93Zm1.16-24.1v-6h7.82l4.4,6v6.06H99V186.2Zm0,24.1v-6H99v-4.4h7.34v4.4l-4.4,6Z" transform="translate(-18.69 -175.95)"></path>
                            <path d="M108.79,204.67l14.39-24.49h5V186L113.62,210.3h-4.83Zm.45-24.49h12.5l-4.17,6.58h-8.33Zm18.63,30.12H115.1l4.18-6.6h8.58Z" transform="translate(-18.69 -175.95)"></path>
                            <path d="M138.31,197.93V210.3H131V180.18h7.34v11.94h7v5.81ZM139.47,186v-5.83h11.47v8.72H144V186Zm0,24.29v-6h4.13v-3h7.34v9Z" transform="translate(-18.69 -175.95)"></path>
                            <path d="M162.63,196.73l2.21-12.64,2.87,14.3-2.37,11.92h-6.66l-6.59-30.12h7.3ZM178.2,210.3h-7l-6-30.12h7.4Zm.07-30.12H185l-6,28.55-3-16Z" transform="translate(-18.69 -175.95)"></path>
                            </g>
                        </g>
                        <g id="S" >
                            <rect class="cls-1" x="184.26" width="3.1" height="3.1" style="transform: translate3d(0px, 0px, 0px);"></rect>
                            <rect class="cls-1" x="187.26" width="3.1" height="3.1" style="transform: translate3d(0px, 0px, 0px);"></rect>
                            <rect class="cls-1" x="187.26" y="3" width="3.1" height="3.1" style="transform: translate3d(0px, 0px, 0px);"></rect>
                            <rect class="cls-1" x="184.26" y="3" width="3.1" height="3.1" style="transform: translate3d(0px, 0px, 0px);"></rect>
                            <rect class="cls-1" x="177.26" width="3.1" height="3.1" style="transform: translate3d(0px, 0px, 0px);"></rect>
                            <rect class="cls-1" x="180.26" width="3.1" height="3.1" style="transform: translate3d(0px, 0px, 0px);"></rect>
                            <rect class="cls-1" x="180.26" y="3" width="3.1" height="3.1" style="transform: translate3d(0px, 0px, 0px);"></rect>
                            <rect class="cls-1" x="177.26" y="3" width="3.1" height="3.1" style="transform: translate3d(0px, 0px, 0px);"></rect>
                            <rect class="cls-1" x="170.26" width="3.1" height="3.1" style="transform: translate3d(0px, 0px, 0px);"></rect>
                            <rect class="cls-1" x="173.26" width="3.1" height="3.1" style="transform: translate3d(0px, 0px, 0px);"></rect>
                            <rect class="cls-1" x="173.26" y="3" width="3.1" height="3.1" style="transform: translate3d(0px, 0px, 0px);"></rect>
                            <rect class="cls-1" x="170.26" y="3" width="3.1" height="3.1" style="transform: translate3d(0px, 0px, 0px);"></rect>
                            <rect class="cls-1" x="170.26" y="7" width="3.1" height="3.1" style="transform: translate3d(0px, 0px, 0px);"></rect>
                            <rect class="cls-1" x="173.26" y="7" width="3.1" height="3.1" style="transform: translate3d(0px, 0px, 0px);"></rect>
                            <rect class="cls-1" x="173.26" y="10" width="3.1" height="3.1" style="transform: translate3d(0px, 0px, 0px);"></rect>
                            <rect class="cls-1" x="170.26" y="10" width="3.1" height="3.1" style="transform: translate3d(0px, 0px, 0px);"></rect>
                            <rect class="cls-1" x="170.26" y="14" width="3.1" height="3.1" style="transform: translate3d(0px, 0px, 0px);"></rect>
                            <rect class="cls-1" x="173.26" y="14" width="3.1" height="3.1" style="transform: translate3d(0px, 0px, 0px);"></rect>
                            <rect class="cls-1" x="173.26" y="17" width="3.1" height="3.1" style="transform: translate3d(0px, 0px, 0px);"></rect>
                            <rect class="cls-1" x="170.26" y="17" width="3.1" height="3.1" style="transform: translate3d(0px, 0px, 0px);"></rect>
                            <rect class="cls-1" x="177.26" y="14" width="3.1" height="3.1" style="transform: translate3d(0px, 0px, 0px);"></rect>
                            <rect class="cls-1" x="180.26" y="14" width="3.1" height="3.1" style="transform: translate3d(0px, 0px, 0px);"></rect>
                            <rect class="cls-1" x="180.26" y="17" width="3.1" height="3.1" style="transform: translate3d(0px, 0px, 0px);"></rect>
                            <rect class="cls-1" x="177.26" y="17" width="3.1" height="3.1" style="transform: translate3d(0px, 0px, 0px);"></rect>
                            <rect class="cls-1" x="184.26" y="14" width="3.1" height="3.1" style="transform: translate3d(0px, 0px, 0px);"></rect>
                            <rect class="cls-1" x="187.26" y="14" width="3.1" height="3.1" style="transform: translate3d(0px, 0px, 0px);"></rect>
                            <rect class="cls-1" x="187.26" y="17" width="3.1" height="3.1" style="transform: translate3d(0px, 0px, 0px);"></rect>
                            <rect class="cls-1" x="184.26" y="17" width="3.1" height="3.1" style="transform: translate3d(0px, 0px, 0px);"></rect>
                            <rect class="cls-1" x="184.26" y="21" width="3.1" height="3.1" style="transform: translate3d(0px, 0px, 0px);"></rect>
                            <rect class="cls-1" x="187.26" y="21" width="3.1" height="3.1" style="transform: translate3d(0px, 0px, 0px);"></rect>
                            <rect class="cls-1" x="187.26" y="24" width="3.1" height="3.1" style="transform: translate3d(0px, 0px, 0px);"></rect>
                            <rect class="cls-1" x="184.26" y="24" width="3.1" height="3.1" style="transform: translate3d(0px, 0px, 0px);"></rect>
                            <rect class="cls-1" x="184.26" y="28" width="3.1" height="3.1" style="transform: translate3d(0px, 0px, 0px);"></rect>
                            <rect class="cls-1" x="187.26" y="28" width="3.1" height="3.1" style="transform: translate3d(0px, 0px, 0px);"></rect>
                            <rect class="cls-1" x="187.26" y="31" width="3.1" height="3.1" style="transform: translate3d(0px, 0px, 0px);"></rect>
                            <rect class="cls-1" x="184.26" y="31" width="3.1" height="3.1" style="transform: translate3d(0px, 0px, 0px);"></rect>
                            <rect class="cls-1" x="177.26" y="28" width="3.1" height="3.1" style="transform: translate3d(0px, 0px, 0px);"></rect>
                            <rect class="cls-1" x="180.26" y="28" width="3.1" height="3.1" style="transform: translate3d(0px, 0px, 0px);"></rect>
                            <rect class="cls-1" x="180.26" y="31" width="3.1" height="3.1" style="transform: translate3d(0px, 0px, 0px);"></rect>
                            <rect class="cls-1" x="177.26" y="31" width="3.1" height="3.1" style="transform: translate3d(0px, 0px, 0px);"></rect>
                            <rect class="cls-1" x="170.26" y="28" width="3.1" height="3.1" style="transform: translate3d(0px, 0px, 0px);"></rect>
                            <rect class="cls-1" x="173.26" y="28" width="3.1" height="3.1" style="transform: translate3d(0px, 0px, 0px);"></rect>
                            <rect class="cls-1" x="173.26" y="31" width="3.1" height="3.1" style="transform: translate3d(0px, 0px, 0px);"></rect>
                            <rect class="cls-1" x="170.26" y="31" width="3.1" height="3.1" style="transform: translate3d(0px, 0px, 0px);"></rect>
                        </g>
                        <g id="K" >
                            <rect class="cls-1" x="194.26" width="3.1" height="3.1" style="transform: translate3d(0px, 0px, 0px);"></rect>
                            <rect class="cls-1" x="197.26" width="3.1" height="3.1" style="transform: translate3d(0px, 0px, 0px);"></rect>
                            <rect class="cls-1" x="197.26" y="3" width="3.1" height="3.1" style="transform: translate3d(0px, 0px, 0px);"></rect>
                            <rect class="cls-1" x="194.26" y="3" width="3.1" height="3.1" style="transform: translate3d(0px, 0px, 0px);"></rect>
                            <rect class="cls-1" x="194.26" y="7" width="3.1" height="3.1" style="transform: translate3d(0px, 0px, 0px);"></rect>
                            <rect class="cls-1" x="197.26" y="7" width="3.1" height="3.1" style="transform: translate3d(0px, 0px, 0px);"></rect>
                            <rect class="cls-1" x="197.26" y="10" width="3.1" height="3.1" style="transform: translate3d(0px, 0px, 0px);"></rect>
                            <rect class="cls-1" x="194.26" y="10" width="3.1" height="3.1" style="transform: translate3d(0px, 0px, 0px);"></rect>
                            <rect class="cls-1" x="194.26" y="14" width="3.1" height="3.1" style="transform: translate3d(0px, 0px, 0px);"></rect>
                            <rect class="cls-1" x="197.26" y="14" width="3.1" height="3.1" style="transform: translate3d(0px, 0px, 0px);"></rect>
                            <rect class="cls-1" x="197.26" y="17" width="3.1" height="3.1" style="transform: translate3d(0px, 0px, 0px);"></rect>
                            <rect class="cls-1" x="194.26" y="17" width="3.1" height="3.1" style="transform: translate3d(0px, 0px, 0px);"></rect>
                            <rect class="cls-1" x="201.26" y="14" width="3.1" height="3.1" style="transform: translate3d(0px, 0px, 0px);"></rect>
                            <rect class="cls-1" x="204.26" y="14" width="3.1" height="3.1" style="transform: translate3d(0px, 0px, 0px);"></rect>
                            <rect class="cls-1" x="204.26" y="17" width="3.1" height="3.1" style="transform: translate3d(0px, 0px, 0px);"></rect>
                            <rect class="cls-1" x="201.26" y="17" width="3.1" height="3.1" style="transform: translate3d(0px, 0px, 0px);"></rect>
                            <rect class="cls-1" x="207.26" y="21" width="3.1" height="3.1" style="transform: translate3d(0px, 0px, 0px);"></rect>
                            <rect class="cls-1" x="210.26" y="21" width="3.1" height="3.1" style="transform: translate3d(0px, 0px, 0px);"></rect>
                            <rect class="cls-1" x="210.26" y="24" width="3.1" height="3.1" style="transform: translate3d(0px, 0px, 0px);"></rect>
                            <rect class="cls-1" x="207.26" y="24" width="3.1" height="3.1" style="transform: translate3d(0px, 0px, 0px);"></rect>
                            <rect class="cls-1" x="214.26" y="28" width="3.1" height="3.1" style="transform: translate3d(0px, 0px, 0px);"></rect>
                            <rect class="cls-1" x="217.26" y="28" width="3.1" height="3.1" style="transform: translate3d(0px, 0px, 0px);"></rect>
                            <rect class="cls-1" x="217.26" y="31" width="3.1" height="3.1" style="transform: translate3d(0px, 0px, 0px);"></rect>
                            <rect class="cls-1" x="214.26" y="31" width="3.1" height="3.1" style="transform: translate3d(0px, 0px, 0px);"></rect>
                            <rect class="cls-1" x="207.26" y="7" width="3.1" height="3.1" style="transform: translate3d(0px, 0px, 0px);"></rect>
                            <rect class="cls-1" x="210.26" y="7" width="3.1" height="3.1" style="transform: translate3d(0px, 0px, 0px);"></rect>
                            <rect class="cls-1" x="210.26" y="10" width="3.1" height="3.1" style="transform: translate3d(0px, 0px, 0px);"></rect>
                            <rect class="cls-1" x="207.26" y="10" width="3.1" height="3.1" style="transform: translate3d(0px, 0px, 0px);"></rect>
                            <rect class="cls-1" x="214.26" width="3.1" height="3.1" style="transform: translate3d(0px, 0px, 0px);"></rect>
                            <rect class="cls-1" x="217.26" width="3.1" height="3.1" style="transform: translate3d(0px, 0px, 0px);"></rect>
                            <rect class="cls-1" x="217.26" y="3" width="3.1" height="3.1" style="transform: translate3d(0px, 0px, 0px);"></rect>
                            <rect class="cls-1" x="214.26" y="3" width="3.1" height="3.1" style="transform: translate3d(0px, 0px, 0px);"></rect>
                            <rect class="cls-1" x="194.26" y="21" width="3.1" height="3.1" style="transform: translate3d(0px, 0px, 0px);"></rect>
                            <rect class="cls-1" x="197.26" y="21" width="3.1" height="3.1" style="transform: translate3d(0px, 0px, 0px);"></rect>
                            <rect class="cls-1" x="197.26" y="24" width="3.1" height="3.1" style="transform: translate3d(0px, 0px, 0px);"></rect>
                            <rect class="cls-1" x="194.26" y="24" width="3.1" height="3.1" style="transform: translate3d(0px, 0px, 0px);"></rect>
                            <rect class="cls-1" x="194.26" y="28" width="3.1" height="3.1" style="transform: translate3d(0px, 0px, 0px);"></rect>
                            <rect class="cls-1" x="197.26" y="28" width="3.1" height="3.1" style="transform: translate3d(0px, 0px, 0px);"></rect>
                            <rect class="cls-1" x="197.26" y="31" width="3.1" height="3.1" style="transform: translate3d(0px, 0px, 0px);"></rect>
                            <rect class="cls-1" x="194.26" y="31" width="3.1" height="3.1" style="transform: translate3d(0px, 0px, 0px);"></rect>
                        </g>
                        <g id="Y" >
                           <rect class="cls-1" x="236.2" y="21" width="3.1" height="3.1" style="transform: translate3d(0px, 0px, 0px);"></rect>
                            <rect class="cls-1" x="239.2" y="21" width="3.1" height="3.1" style="transform: translate3d(0px, 0px, 0px);"></rect>
                            <rect class="cls-1" x="239.2" y="24" width="3.1" height="3.1" style="transform: translate3d(0px, 0px, 0px);"></rect>
                            <rect class="cls-1" x="236.2" y="24" width="3.1" height="3.1" style="transform: translate3d(0px, 0px, 0px);"></rect>
                            <rect class="cls-1" x="236.2" y="28" width="3.1" height="3.1" style="transform: translate3d(0px, 0px, 0px);"></rect>
                            <rect class="cls-1" x="239.2" y="28" width="3.1" height="3.1" style="transform: translate3d(0px, 0px, 0px);"></rect>
                            <rect class="cls-1" x="239.2" y="31" width="3.1" height="3.1" style="transform: translate3d(0px, 0px, 0px);"></rect>
                            <rect class="cls-1" x="236.2" y="31" width="3.1" height="3.1" style="transform: translate3d(0px, 0px, 0px);"></rect>
                            <rect class="cls-1" x="225.2" width="3.1" height="3.1" style="transform: translate3d(0px, 0px, 0px);"></rect>
                            <rect class="cls-1" x="228.2" width="3.1" height="3.1" style="transform: translate3d(0px, 0px, 0px);"></rect>
                            <rect class="cls-1" x="228.2" y="3" width="3.1" height="3.1" style="transform: translate3d(0px, 0px, 0px);"></rect>
                            <rect class="cls-1" x="225.2" y="3" width="3.1" height="3.1" style="transform: translate3d(0px, 0px, 0px);"></rect>
                            <rect class="cls-1" x="232.2" y="7" width="3.1" height="3.1" style="transform: translate3d(0px, 0px, 0px);"></rect>
                            <rect class="cls-1" x="235.2" y="7" width="3.1" height="3.1" style="transform: translate3d(0px, 0px, 0px);"></rect>
                            <rect class="cls-1" x="235.2" y="10" width="3.1" height="3.1" style="transform: translate3d(0px, 0px, 0px);"></rect>
                            <rect class="cls-1" x="232.2" y="10" width="3.1" height="3.1" style="transform: translate3d(0px, 0px, 0px);"></rect>
                            <rect class="cls-1" x="236.2" y="14" width="3.1" height="3.1" style="transform: translate3d(0px, 0px, 0px);"></rect>
                            <rect class="cls-1" x="239.2" y="14" width="3.1" height="3.1" style="transform: translate3d(0px, 0px, 0px);"></rect>
                            <rect class="cls-1" x="239.2" y="17" width="3.1" height="3.1" style="transform: translate3d(0px, 0px, 0px);"></rect>
                            <rect class="cls-1" x="236.2" y="17" width="3.1" height="3.1" style="transform: translate3d(0px, 0px, 0px);"></rect>
                            <rect class="cls-1" x="240.2" y="7" width="3.1" height="3.1" style="transform: translate3d(0px, 0px, 0px);"></rect>
                            <rect class="cls-1" x="243.2" y="7" width="3.1" height="3.1" style="transform: translate3d(0px, 0px, 0px);"></rect>
                            <rect class="cls-1" x="243.2" y="10" width="3.1" height="3.1" style="transform: translate3d(0px, 0px, 0px);"></rect>
                            <rect class="cls-1" x="240.2" y="10" width="3.1" height="3.1" style="transform: translate3d(0px, 0px, 0px);"></rect>
                            <rect class="cls-1" x="247.2" width="3.1" height="3.1" style="transform: translate3d(0px, 0px, 0px);"></rect>
                            <rect class="cls-1" x="250.2" width="3.1" height="3.1" style="transform: translate3d(0px, 0px, 0px);"></rect>
                            <rect class="cls-1" x="250.2" y="3" width="3.1" height="3.1" style="transform: translate3d(0px, 0px, 0px);"></rect>
                            <rect class="cls-1" x="247.2" y="3" width="3.1" height="3.1" style="transform: translate3d(0px, 0px, 0px);"></rect>
                        </g>
                        </svg>