<svg xmlns="http://www.w3.org/2000/svg" xmlns:xlink="http://www.w3.org/1999/xlink" viewBox="0 0 140.19 33.77">
  <defs>
    <style>
      .cls-1 {
        fill: url(#radial-gradient);
      }

      .cls-2 {
        fill: #e1e5e1;
      }
    </style>
    <radialGradient id="radial-gradient" cx="59.78" cy="-34.93" r="113.07" gradientUnits="userSpaceOnUse">
      <stop offset="0.02" stop-color="#ba131a"/>
      <stop offset="0.97" stop-color="#262262"/>
    </radialGradient>
  </defs>
  <title>cleanAsset 1</title>
  <g id="Layer_2" data-name="Layer 2">
    <g id="Layer_1-2" data-name="Layer 1">
      <path class="cls-1" d="M70.1,0C31.38,0,0,7.56,0,16.88S31.38,33.77,70.1,33.77s70.1-7.56,70.1-16.88S108.81,0,70.1,0Zm1.44,27.06c-35.43,0-64.2-4.66-64.2-12.34S36.06.82,71.49.82,135.64,7,135.64,14.72,107,27.06,71.54,27.06Z"/>
      <g>
        <path class="cls-2" d="M31.11,6.05a.91.91,0,0,0-1.5,0,1.5,1.5,0,0,0-.31,1v4.76a6.87,6.87,0,0,1-.1,1.11A3.47,3.47,0,0,1,28.83,14a5.57,5.57,0,0,1-.75,1c-2.91,3.19-4.76,1.36-5.24.48a5.23,5.23,0,0,1-.42-2.13V10a1.39,1.39,0,1,0-2.78,0v3.3a5.23,5.23,0,0,1-.42,2.13c-.47.88-2.33,2.71-5.24-.48a5.57,5.57,0,0,1-.75-1,3.47,3.47,0,0,1-.37-1.11,6.87,6.87,0,0,1-.1-1.11V7a1.5,1.5,0,0,0-.31-1,.91.91,0,0,0-1.5,0,1.49,1.49,0,0,0-.31,1v4.76a9.06,9.06,0,0,0,.26,2.13,7.72,7.72,0,0,0,.76,2,4.23,4.23,0,0,0,1.17,1.32c.47.37.65.5,1.26.91L21,21.72,28,18.1c.61-.41.79-.54,1.26-.91a4.23,4.23,0,0,0,1.17-1.32,7.72,7.72,0,0,0,.76-2,9.06,9.06,0,0,0,.26-2.13V7A1.49,1.49,0,0,0,31.11,6.05Z"/>
        <path class="cls-2" d="M32.92,11.32a1,1,0,0,1,1-1H48.82a1,1,0,1,1,0,2H33.93a1,1,0,0,1-1-1Zm2.56,8.15a2.31,2.31,0,0,1-.92-.2,2.6,2.6,0,0,1-.82-.56,2.93,2.93,0,0,1-.59-.86,2.69,2.69,0,0,1-.23-1.13V14.83a.8.8,0,0,1,.33-.76,2.1,2.1,0,0,1,1-.19H48.35a1,1,0,1,1,0,2H34.93v1a.48.48,0,0,0,.18.37.69.69,0,0,0,.47.16H48.82a1,1,0,1,1,0,2Z"/>
        <path class="cls-2" d="M51.92,11.32a1,1,0,0,1,1-1H65.51a2.76,2.76,0,0,1,1.1.22,3,3,0,0,1,.9.6,2.74,2.74,0,0,1,.61.89,2.77,2.77,0,0,1,.22,1.1,2.64,2.64,0,0,1-.18,1,3,3,0,0,1-.47.81,3,3,0,0,1,.47.81,2.58,2.58,0,0,1,.18,1,2.7,2.7,0,0,1-.22,1.09,2.77,2.77,0,0,1-.61.88,3,3,0,0,1-.9.6,2.77,2.77,0,0,1-1.1.22h-11a2.31,2.31,0,0,1-.92-.2,2.6,2.6,0,0,1-.82-.56,2.93,2.93,0,0,1-.59-.86,2.69,2.69,0,0,1-.23-1.13V14.83a.8.8,0,0,1,.33-.76,2.1,2.1,0,0,1,1-.19H65.62a.78.78,0,0,0,.55-.21.7.7,0,0,0,.23-.55.83.83,0,0,0-.8-.8H52.93a1,1,0,0,1-1-1ZM65.6,17.45a.78.78,0,0,0,.56-.23.73.73,0,0,0,.24-.55.72.72,0,0,0-.24-.56.8.8,0,0,0-.56-.22H53.94v1a.48.48,0,0,0,.18.37.69.69,0,0,0,.47.16Z"/>
        <path class="cls-2" d="M73.31,18.36a1.38,1.38,0,0,1-2.46-.87,1.2,1.2,0,0,1,.29-.84l7-9.48a3.84,3.84,0,0,1,3-1.51A3.77,3.77,0,0,1,82.88,6a3.39,3.39,0,0,1,1.28,1l7,9.42a2,2,0,0,1,.29.45,1.25,1.25,0,0,1,.12.54,1.39,1.39,0,0,1-1.39,1.39,1.3,1.3,0,0,1-1.1-.55l-6.76-9a6.26,6.26,0,0,0-.51-.51.84.84,0,0,0-1.25,0,3.74,3.74,0,0,0-.48.51Zm6.12-2.61A1.78,1.78,0,1,1,80,17,1.74,1.74,0,0,1,79.43,15.75Z"/>
        <path class="cls-2" d="M94.11,11.32a1,1,0,0,1,1-1H107.7a2.76,2.76,0,0,1,1.1.22,3,3,0,0,1,.9.6,2.77,2.77,0,0,1,.61.88,2.82,2.82,0,0,1,0,2.18,2.77,2.77,0,0,1-.61.88,3,3,0,0,1-.9.6,2.76,2.76,0,0,1-1.1.22H96.78a.76.76,0,0,0-.46.25.76.76,0,0,0-.19.52v1.79a1,1,0,0,1-.3.71,1,1,0,0,1-.7.29,1,1,0,0,1-1-1v-2a2.66,2.66,0,0,1,.19-1,2.42,2.42,0,0,1,.54-.82,2.62,2.62,0,0,1,.8-.55,2.44,2.44,0,0,1,1-.2h11.15a.8.8,0,0,0,.56-.22.72.72,0,0,0,.24-.56.73.73,0,0,0-.24-.55.78.78,0,0,0-.56-.23H95.12a1,1,0,0,1-1-1Z"/>
        <path class="cls-2" d="M112.63,11.32a1,1,0,0,1,1-1h14.89a1,1,0,1,1,0,2H113.64a1,1,0,0,1-1-1Zm2.56,8.15a2.3,2.3,0,0,1-.92-.2,2.59,2.59,0,0,1-.82-.56,2.91,2.91,0,0,1-.59-.86,2.69,2.69,0,0,1-.23-1.13V14.83a.8.8,0,0,1,.33-.76,2.1,2.1,0,0,1,1-.19h14.09a1,1,0,1,1,0,2H114.65v1a.48.48,0,0,0,.18.37.69.69,0,0,0,.47.16h13.23a1,1,0,1,1,0,2Z"/>
      </g>
    </g>
  </g>
</svg>
