<svg width="254" height="39" viewBox="0 0 254 39" fill="none" xmlns="http://www.w3.org/2000/svg">
<path d="M0 36.35V6.22998H7.31V36.35H0ZM8.47 32.05V17.45L13.62 6.23999H21.26L8.47 32.05ZM21.6 36.32H13.67L11.18 29.32L15.53 20.4L21.6 36.32Z" fill="white"/>
<path d="M22.75 36.35V6.22998H30.09V36.35H22.75ZM31.25 36.35V30.35H34.89V26.54H41.55V36.37L31.25 36.35Z" fill="white"/>
<path d="M51.12 23.98V36.35H43.78V6.22997H51.12V18.17H58.12V23.98H51.12ZM52.31 12.05V6.21997H63.75V14.94H56.85V12.05H52.31ZM52.31 36.34V30.34H56.41V27.34H63.75V36.34H52.31Z" fill="white"/>
<path d="M74.31 36.35H71.31L66.89 30.35V12.25L71.31 6.25H74.31V36.35ZM75.47 12.25V6.25H83.29L87.69 12.25V18.31H80.31V12.25H75.47ZM75.47 36.35V30.35H80.31V25.95H87.65V30.35L83.25 36.35H75.47Z" fill="white"/>
<path d="M90.1 30.72L104.49 6.22998H109.49V12.05L94.93 36.35H90.1V30.72ZM90.55 6.22998H103.05L98.88 12.81H90.55V6.22998ZM109.18 36.35H96.41L100.59 29.75H109.17L109.18 36.35Z" fill="white"/>
<path d="M119.62 23.98V36.35H112.31V6.22997H119.65V18.17H126.65V23.98H119.62ZM120.78 12.05V6.21997H132.25V14.94H125.31V12.05H120.78ZM120.78 36.34V30.34H124.91V27.34H132.25V36.34H120.78Z" fill="white"/>
<path d="M143.94 22.78L146.15 10.14L149.02 24.44L146.65 36.36H139.99L133.4 6.23999H140.7L143.94 22.78ZM159.51 36.35H152.51L146.51 6.22998H153.91L159.51 36.35ZM159.58 6.22998H166.31L160.31 34.78L157.31 18.78L159.58 6.22998Z" fill="white"/>
<path d="M187.36 2H184.26V5.1H187.36V2Z" fill="#D4A615"/>
<path d="M190.36 2H187.26V5.1H190.36V2Z" fill="#D4A615"/>
<path d="M190.36 5H187.26V8.1H190.36V5Z" fill="#D4A615"/>
<path d="M187.36 5H184.26V8.1H187.36V5Z" fill="#D4A615"/>
<path d="M180.36 2H177.26V5.1H180.36V2Z" fill="#D4A615"/>
<path d="M183.36 2H180.26V5.1H183.36V2Z" fill="#D4A615"/>
<path d="M183.36 5H180.26V8.1H183.36V5Z" fill="#D4A615"/>
<path d="M180.36 5H177.26V8.1H180.36V5Z" fill="#D4A615"/>
<path d="M173.36 2H170.26V5.1H173.36V2Z" fill="#D4A615"/>
<path d="M176.36 2H173.26V5.1H176.36V2Z" fill="#D4A615"/>
<path d="M176.36 5H173.26V8.1H176.36V5Z" fill="#D4A615"/>
<path d="M173.36 5H170.26V8.1H173.36V5Z" fill="#D4A615"/>
<path d="M173.36 9H170.26V12.1H173.36V9Z" fill="#D4A615"/>
<path d="M176.36 9H173.26V12.1H176.36V9Z" fill="#D4A615"/>
<path d="M176.36 12H173.26V15.1H176.36V12Z" fill="#D4A615"/>
<path d="M173.36 12H170.26V15.1H173.36V12Z" fill="#D4A615"/>
<path d="M173.36 16H170.26V19.1H173.36V16Z" fill="#D4A615"/>
<path d="M176.36 16H173.26V19.1H176.36V16Z" fill="#D4A615"/>
<path d="M176.36 19H173.26V22.1H176.36V19Z" fill="#D4A615"/>
<path d="M173.36 19H170.26V22.1H173.36V19Z" fill="#D4A615"/>
<path d="M180.36 16H177.26V19.1H180.36V16Z" fill="#D4A615"/>
<path d="M183.36 16H180.26V19.1H183.36V16Z" fill="#D4A615"/>
<path d="M183.36 19H180.26V22.1H183.36V19Z" fill="#D4A615"/>
<path d="M180.36 19H177.26V22.1H180.36V19Z" fill="#D4A615"/>
<path d="M187.36 16H184.26V19.1H187.36V16Z" fill="#D4A615"/>
<path d="M190.36 16H187.26V19.1H190.36V16Z" fill="#D4A615"/>
<path d="M190.36 19H187.26V22.1H190.36V19Z" fill="#D4A615"/>
<path d="M187.36 19H184.26V22.1H187.36V19Z" fill="#D4A615"/>
<path d="M187.36 23H184.26V26.1H187.36V23Z" fill="#D4A615"/>
<path d="M190.36 23H187.26V26.1H190.36V23Z" fill="#D4A615"/>
<path d="M190.36 26H187.26V29.1H190.36V26Z" fill="#D4A615"/>
<path d="M187.36 26H184.26V29.1H187.36V26Z" fill="#D4A615"/>
<path d="M187.36 30H184.26V33.1H187.36V30Z" fill="#D4A615"/>
<path d="M190.36 30H187.26V33.1H190.36V30Z" fill="#D4A615"/>
<path d="M190.36 33H187.26V36.1H190.36V33Z" fill="#D4A615"/>
<path d="M187.36 33H184.26V36.1H187.36V33Z" fill="#D4A615"/>
<path d="M180.36 30H177.26V33.1H180.36V30Z" fill="#D4A615"/>
<path d="M183.36 30H180.26V33.1H183.36V30Z" fill="#D4A615"/>
<path d="M183.36 33H180.26V36.1H183.36V33Z" fill="#D4A615"/>
<path d="M180.36 33H177.26V36.1H180.36V33Z" fill="#D4A615"/>
<path d="M173.36 30H170.26V33.1H173.36V30Z" fill="#D4A615"/>
<path d="M176.36 30H173.26V33.1H176.36V30Z" fill="#D4A615"/>
<path d="M176.36 33H173.26V36.1H176.36V33Z" fill="#D4A615"/>
<path d="M173.36 33H170.26V36.1H173.36V33Z" fill="#D4A615"/>
<path d="M197.36 2H194.26V5.1H197.36V2Z" fill="#D4A615"/>
<path d="M200.36 2H197.26V5.1H200.36V2Z" fill="#D4A615"/>
<path d="M200.36 5H197.26V8.1H200.36V5Z" fill="#D4A615"/>
<path d="M197.36 5H194.26V8.1H197.36V5Z" fill="#D4A615"/>
<path d="M197.36 9H194.26V12.1H197.36V9Z" fill="#D4A615"/>
<path d="M200.36 9H197.26V12.1H200.36V9Z" fill="#D4A615"/>
<path d="M200.36 12H197.26V15.1H200.36V12Z" fill="#D4A615"/>
<path d="M197.36 12H194.26V15.1H197.36V12Z" fill="#D4A615"/>
<path d="M197.36 16H194.26V19.1H197.36V16Z" fill="#D4A615"/>
<path d="M200.36 16H197.26V19.1H200.36V16Z" fill="#D4A615"/>
<path d="M200.36 19H197.26V22.1H200.36V19Z" fill="#D4A615"/>
<path d="M197.36 19H194.26V22.1H197.36V19Z" fill="#D4A615"/>
<path d="M204.36 16H201.26V19.1H204.36V16Z" fill="#D4A615"/>
<path d="M207.36 16H204.26V19.1H207.36V16Z" fill="#D4A615"/>
<path d="M207.36 19H204.26V22.1H207.36V19Z" fill="#D4A615"/>
<path d="M204.36 19H201.26V22.1H204.36V19Z" fill="#D4A615"/>
<path d="M210.36 23H207.26V26.1H210.36V23Z" fill="#D4A615"/>
<path d="M213.36 23H210.26V26.1H213.36V23Z" fill="#D4A615"/>
<path d="M213.36 26H210.26V29.1H213.36V26Z" fill="#D4A615"/>
<path d="M210.36 26H207.26V29.1H210.36V26Z" fill="#D4A615"/>
<path d="M217.36 30H214.26V33.1H217.36V30Z" fill="#D4A615"/>
<path d="M220.36 30H217.26V33.1H220.36V30Z" fill="#D4A615"/>
<path d="M220.36 33H217.26V36.1H220.36V33Z" fill="#D4A615"/>
<path d="M217.36 33H214.26V36.1H217.36V33Z" fill="#D4A615"/>
<path d="M210.36 9H207.26V12.1H210.36V9Z" fill="#D4A615"/>
<path d="M213.36 9H210.26V12.1H213.36V9Z" fill="#D4A615"/>
<path d="M213.36 12H210.26V15.1H213.36V12Z" fill="#D4A615"/>
<path d="M210.36 12H207.26V15.1H210.36V12Z" fill="#D4A615"/>
<path d="M217.36 2H214.26V5.1H217.36V2Z" fill="#D4A615"/>
<path d="M220.36 2H217.26V5.1H220.36V2Z" fill="#D4A615"/>
<path d="M220.36 5H217.26V8.1H220.36V5Z" fill="#D4A615"/>
<path d="M217.36 5H214.26V8.1H217.36V5Z" fill="#D4A615"/>
<path d="M197.36 23H194.26V26.1H197.36V23Z" fill="#D4A615"/>
<path d="M200.36 23H197.26V26.1H200.36V23Z" fill="#D4A615"/>
<path d="M200.36 26H197.26V29.1H200.36V26Z" fill="#D4A615"/>
<path d="M197.36 26H194.26V29.1H197.36V26Z" fill="#D4A615"/>
<path d="M197.36 30H194.26V33.1H197.36V30Z" fill="#D4A615"/>
<path d="M200.36 30H197.26V33.1H200.36V30Z" fill="#D4A615"/>
<path d="M200.36 33H197.26V36.1H200.36V33Z" fill="#D4A615"/>
<path d="M197.36 33H194.26V36.1H197.36V33Z" fill="#D4A615"/>
<path d="M239.3 23H236.2V26.1H239.3V23Z" fill="#D4A615"/>
<path d="M242.3 23H239.2V26.1H242.3V23Z" fill="#D4A615"/>
<path d="M242.3 26H239.2V29.1H242.3V26Z" fill="#D4A615"/>
<path d="M239.3 26H236.2V29.1H239.3V26Z" fill="#D4A615"/>
<path d="M239.3 30H236.2V33.1H239.3V30Z" fill="#D4A615"/>
<path d="M242.3 30H239.2V33.1H242.3V30Z" fill="#D4A615"/>
<path d="M242.3 33H239.2V36.1H242.3V33Z" fill="#D4A615"/>
<path d="M239.3 33H236.2V36.1H239.3V33Z" fill="#D4A615"/>
<path d="M228.3 2H225.2V5.1H228.3V2Z" fill="#D4A615"/>
<path d="M231.3 2H228.2V5.1H231.3V2Z" fill="#D4A615"/>
<path d="M231.3 5H228.2V8.1H231.3V5Z" fill="#D4A615"/>
<path d="M228.3 5H225.2V8.1H228.3V5Z" fill="#D4A615"/>
<path d="M235.3 9H232.2V12.1H235.3V9Z" fill="#D4A615"/>
<path d="M238.3 9H235.2V12.1H238.3V9Z" fill="#D4A615"/>
<path d="M238.3 12H235.2V15.1H238.3V12Z" fill="#D4A615"/>
<path d="M235.3 12H232.2V15.1H235.3V12Z" fill="#D4A615"/>
<path d="M239.3 16H236.2V19.1H239.3V16Z" fill="#D4A615"/>
<path d="M242.3 16H239.2V19.1H242.3V16Z" fill="#D4A615"/>
<path d="M242.3 19H239.2V22.1H242.3V19Z" fill="#D4A615"/>
<path d="M239.3 19H236.2V22.1H239.3V19Z" fill="#D4A615"/>
<path d="M243.3 9H240.2V12.1H243.3V9Z" fill="#D4A615"/>
<path d="M246.3 9H243.2V12.1H246.3V9Z" fill="#D4A615"/>
<path d="M246.3 12H243.2V15.1H246.3V12Z" fill="#D4A615"/>
<path d="M243.3 12H240.2V15.1H243.3V12Z" fill="#D4A615"/>
<path d="M250.3 2H247.2V5.1H250.3V2Z" fill="#D4A615"/>
<path d="M253.3 2H250.2V5.1H253.3V2Z" fill="#D4A615"/>
<path d="M253.3 5H250.2V8.1H253.3V5Z" fill="#D4A615"/>
<path d="M250.3 5H247.2V8.1H250.3V5Z" fill="#D4A615"/>
</svg>
