<svg width="20" height="20" viewBox="0 0 16 16" fill="none" xmlns="http://www.w3.org/2000/svg">
<path d="M8 16C3.57844 16 0 12.4219 0 8C0 3.57844 3.57812 0 8 0C12.4216 0 16 3.57812 16 8C16 12.4216 12.4219 16 8 16ZM7.61613 6.08134L5.79984 4.26472C5.59469 4.05994 5.32225 3.94703 5.03244 3.94703C4.43256 3.94703 3.947 4.43222 3.947 5.03247C3.947 5.32228 4.05988 5.59472 4.26469 5.79988L6.08131 7.61616C6.29334 7.82816 6.29334 8.17188 6.08131 8.38391L4.26469 10.2002C4.05991 10.4053 3.947 10.6778 3.947 10.9676C3.947 11.5675 4.43219 12.053 5.03244 12.053C5.32225 12.053 5.59469 11.9401 5.79984 11.7353L7.61613 9.91872C7.82816 9.70706 8.17188 9.70706 8.38387 9.91872L10.2002 11.7353C10.4053 11.9401 10.6778 12.053 10.9676 12.053C11.5674 12.053 12.053 11.5678 12.053 10.9676C12.053 10.6778 11.9401 10.4053 11.7353 10.2002L9.91869 8.38391C9.70666 8.17191 9.70666 7.82819 9.91869 7.61616L11.7353 5.79988C11.9401 5.59472 12.053 5.32228 12.053 5.03247C12.053 4.43259 11.5678 3.94703 10.9676 3.94703C10.6778 3.94703 10.4053 4.05994 10.2002 4.26472L8.38387 6.08134C8.17188 6.29334 7.82812 6.293 7.61613 6.08134Z" fill="#C80000"/>
</svg>
