<svg width="62" height="62" viewBox="0 0 62 62" fill="none" xmlns="http://www.w3.org/2000/svg">
<g clip-path="url(#clip0)">
<path d="M56.1516 42.3035L53.5831 60.2848C53.3719 61.759 51.56 62.3716 50.5002 61.3118L46.7591 57.5708C41.9484 60.4728 36.4869 62 30.8709 62C13.9822 62 0.422952 48.7814 0.000818706 31.9069C-0.0221891 30.9845 0.648307 30.1934 1.56002 30.0621L8.8185 29.0245C9.9006 28.8666 10.9072 29.7162 10.8922 30.8479C10.7417 41.9849 19.7368 51.1016 30.8709 51.1016C33.567 51.1016 36.2313 50.5535 38.6935 49.5052L35.0874 45.899C34.0342 44.8459 34.6319 43.0284 36.1144 42.8161L54.0957 40.2476C55.2805 40.069 56.3215 41.0993 56.1516 42.3035Z" fill="#CEFDD0"/>
<path d="M60.4399 31.7978L53.1868 32.8337C52.2497 32.9524 51.1132 32.1494 51.1132 30.8789C51.1132 19.8617 42.1499 10.8984 31.1327 10.8984C28.4507 10.8984 25.7987 11.4412 23.3456 12.4789L26.8365 15.9698C27.8897 17.023 27.292 18.8405 25.8095 19.0528L7.82819 21.6231C6.64716 21.7918 5.60127 20.779 5.77226 19.5672L8.34066 1.58571C8.55209 0.109943 10.3624 -0.49855 11.4236 0.55872L15.2551 4.38843C20.0427 1.51306 25.5007 -7.62939e-06 31.1327 -7.62939e-06C47.9398 -7.62939e-06 61.4972 13.153 61.9991 29.9441C62.0258 30.8682 61.3553 31.6665 60.4399 31.7978Z" fill="#CEFDD0"/>
</g>
<defs>
<clipPath id="clip0">
<rect width="62" height="62" fill="white" transform="matrix(1 0 0 -1 0 62)"/>
</clipPath>
</defs>
</svg>
